HIERARCHY
ROOT Hips
{
    OFFSET 0.000000 0.000000 0.000000
    CHANNELS 6 Xposition Yposition Zposition Zrotation Xrotation Yrotation
    JOINT Spine
    {
        OFFSET -0.000000 14.517291 0.000000
        CHANNELS 3 Zrotation Xrotation Yrotation
        JOINT Spine1
        {
            OFFSET -0.000000 37.558300 0.000000
            CHANNELS 3 Zrotation Xrotation Yrotation
            JOINT Neck
            {
                OFFSET -0.000000 37.404057 3.400369
                CHANNELS 3 Zrotation Xrotation Yrotation
                JOINT Head
                {
                    OFFSET -0.000000 24.785618 -3.540803
                    CHANNELS 3 Zrotation Xrotation Yrotation
                    End Site
                    {
                        OFFSET -0.000000 35.408028 0.000000
                    }
                }
            }
            JOINT LeftShoulder
            {
                OFFSET 6.992933 33.973492 -0.192664
                CHANNELS 3 Zrotation Xrotation Yrotation
                JOINT LeftArm
                {
                    OFFSET 21.527611 0.000000 0.000000
                    CHANNELS 3 Zrotation Xrotation Yrotation
                    JOINT LeftForeArm
                    {
                        OFFSET 56.353916 0.000000 0.000000
                        CHANNELS 3 Zrotation Xrotation Yrotation
                        JOINT LeftHand
                        {
                            OFFSET 47.774071 0.000000 0.000000
                            CHANNELS 3 Zrotation Xrotation Yrotation
                            End Site
                            {
                                OFFSET 26.556021 0.000000 0.000000
                            }
                        }
                    }
                }
            }
            JOINT RightShoulder
            {
                OFFSET -7.065357 33.973492 -0.192664
                CHANNELS 3 Zrotation Xrotation Yrotation
                JOINT RightArm
                {
                    OFFSET -21.527611 0.000000 0.000000
                    CHANNELS 3 Zrotation Xrotation Yrotation
                    JOINT RightForeArm
                    {
                        OFFSET -56.353916 0.000000 0.000000
                        CHANNELS 3 Zrotation Xrotation Yrotation
                        JOINT RightHand
                        {
                            OFFSET -47.774071 0.000000 0.000000
                            CHANNELS 3 Zrotation Xrotation Yrotation
                            End Site
                            {
                                OFFSET -26.556021 0.000000 0.000000
                            }
                        }
                    }
                }
            }
        }
    }
    JOINT LeftUpLeg
    {
        OFFSET 17.704014 0.000000 0.000000
        CHANNELS 3 Zrotation Xrotation Yrotation
        JOINT LeftLeg
        {
            OFFSET -0.000000 -81.181816 0.000000
            CHANNELS 3 Zrotation Xrotation Yrotation
            JOINT LeftFoot
            {
                OFFSET -0.000000 -62.821102 0.000000
                CHANNELS 3 Zrotation Xrotation Yrotation
                JOINT LeftToeBase
                {
                    OFFSET -0.000000 -11.507608 26.556021
                    CHANNELS 3 Zrotation Xrotation Yrotation
                    End Site
                    {
                        OFFSET -0.000000 0.000000 7.081605
                    }
                }
            }
        }
    }
    JOINT RightUpLeg
    {
        OFFSET -17.704014 0.000000 0.000000
        CHANNELS 3 Zrotation Xrotation Yrotation
        JOINT RightLeg
        {
            OFFSET -0.000000 -81.181816 0.000000
            CHANNELS 3 Zrotation Xrotation Yrotation
            JOINT RightFoot
            {
                OFFSET -0.000000 -62.821102 0.000000
                CHANNELS 3 Zrotation Xrotation Yrotation
                JOINT RightToeBase
                {
                    OFFSET -0.000000 -11.507608 26.556021
                    CHANNELS 3 Zrotation Xrotation Yrotation
                    End Site
                    {
                        OFFSET -0.000000 0.000000 7.081605
                    }
                }
            }
        }
    }
}
MOTION
Frames:    11
Frame Time:    0.008333
54.203129    153.967361    -108.083954    6.550080    5.820103    27.198801    11.927647    -1.594114    -5.097040    7.159727    -0.001432    -1.754430    26.171551    -2.936359    3.602738    -3.784548    8.409515    -1.167480    18.697701    -4.497966    -18.030329    -21.084003    -25.321980    -33.328648    -18.406349    -55.282516    -95.809334    -61.349335    -43.152287    -58.396996    -3.913495    -0.453651    -8.215590    13.308220    17.728977    9.379865    16.090948    13.569643    -1.614652    20.575699    16.889429    17.557589    -11.222343    -0.618870    3.472300    -11.557567    29.369963    -16.129288    14.359552    -23.898254    45.543308    0.000000    0.000000    0.000000    -31.214911    -27.031460    -3.750666    7.563671    18.767157    -12.193366    6.765297    12.128361    -16.065094    0.000000    0.000000    0.000000    
54.031445    154.030441    -108.001617    6.439779    5.738916    27.157938    11.869459    -1.560220    -5.077613    7.056856    0.023460    -1.748049    26.169254    -2.904941    3.617301    -3.841390    8.325393    -1.151323    18.673779    -4.453180    -18.040791    -21.042439    -25.267296    -33.300896    -18.352812    -55.346073    -95.719833    -61.353649    -43.160698    -58.397312    -3.927794    -0.469649    -8.221648    13.377548    17.790983    9.364117    16.090107    13.556927    -1.591801    20.531855    16.873278    17.592285    -11.043197    -0.609607    3.427987    -11.539041    29.357468    -16.113911    14.296088    -23.932579    45.612698    0.000000    0.000000    0.000000    -30.984013    -26.993666    -3.727161    7.571921    18.660801    -12.250181    6.737557    12.209677    -15.963422    0.000000    0.000000    0.000000    
53.833252    154.141907    -107.795868    6.322559    5.448106    27.161301    11.838720    -1.448441    -5.148915    7.046635    0.149717    -1.775582    26.014120    -2.856346    3.617693    -3.768729    8.216548    -1.109467    18.582378    -4.458932    -18.013348    -21.025866    -25.239975    -33.267937    -18.330696    -55.318130    -95.600731    -61.332573    -43.107380    -58.365341    -4.014454    -0.472052    -8.209211    13.468291    17.861448    9.371930    16.107370    13.526793    -1.558842    20.569458    16.845953    17.596857    -10.714123    -0.361473    3.371973    -11.556155    29.301924    -16.127407    14.207684    -23.935520    45.679279    0.000000    0.000000    0.000000    -30.544895    -26.704029    -3.674842    7.494424    18.503563    -12.216538    6.692394    12.286366    -15.860441    0.000000    0.000000    0.000000    
53.655769    154.210785    -107.710770    6.214227    5.361881    27.106052    11.769137    -1.405216    -5.138517    6.961493    0.174286    -1.771722    25.981663    -2.823404    3.633141    -3.857298    8.137444    -1.088933    18.495789    -4.420553    -17.983322    -20.945494    -25.128572    -33.240692    -18.275211    -55.453785    -95.501534    -61.406063    -43.115761    -58.438183    -4.073250    -0.442679    -8.191420    13.533298    17.817303    9.372308    16.181952    13.571908    -1.546883    20.561354    16.891079    17.611429    -10.537696    -0.345171    3.257197    -11.562589    29.267920    -16.060392    14.160595    -23.940180    45.773624    0.000000    0.000000    0.000000    -30.319992    -26.674084    -3.681465    7.517951    18.411251    -12.200172    6.629876    12.385848    -15.780100    0.000000    0.000000    0.000000    
53.477787    154.243484    -107.737877    6.093747    5.480743    26.997557    11.658914    -1.458539    -5.034652    6.799342    0.118082    -1.734883    26.030592    -2.757371    3.661083    -4.025012    7.993480    -1.070577    18.455931    -4.419137    -17.969994    -20.956640    -25.117981    -33.235989    -18.311897    -55.441002    -95.420242    -61.469711    -43.064438    -58.445698    -4.061404    -0.391350    -8.207192    13.562147    17.840927    9.386011    16.206335    13.578242    -1.514345    20.571957    16.901524    17.648985    -10.480202    -0.570343    3.184916    -11.522948    29.275206    -15.972926    14.106037    -23.976599    45.840099    0.000000    0.000000    0.000000    -30.255911    -26.914337    -3.736758    7.587790    18.385374    -12.199668    6.641930    12.511172    -15.767969    0.000000    0.000000    0.000000    
53.271900    154.321426    -107.630600    5.972926    5.375861    26.929888    11.543676    -1.415549    -5.027886    6.777459    0.152839    -1.732737    25.870487    -2.682729    3.663264    -3.971148    7.861640    -1.022429    18.357372    -4.379654    -17.953831    -20.683125    -24.564142    -33.073837    -17.904444    -56.105755    -95.230843    -61.647022    -43.271294    -58.678413    -4.158486    -0.311827    -8.159534    13.657231    17.823097    9.375182    16.237144    13.594152    -1.478928    20.624002    16.911440    17.596848    -10.275591    -0.530006    3.138345    -11.485018    29.234205    -15.925832    14.020528    -23.999226    45.867271    0.000000    0.000000    0.000000    -29.978203    -26.886272    -3.754692    7.577252    18.308718    -12.207835    6.566946    12.627325    -15.612601    0.000000    0.000000    0.000000    
53.059448    154.401276    -107.524597    5.841138    5.283337    26.859922    11.461088    -1.391139    -5.007957    6.662473    0.199135    -1.727451    25.837948    -2.639429    3.692554    -4.022435    7.742666    -0.984037    18.307646    -4.357023    -17.898018    -20.713318    -24.620598    -33.108738    -17.927191    -56.065376    -95.111839    -61.590054    -43.268456    -58.637875    -4.180010    -0.287566    -8.161513    13.699806    17.807859    9.400826    16.301561    13.622896    -1.470343    20.648643    16.935375    17.553352    -10.067378    -0.504552    3.107325    -11.441039    29.187595    -15.874550    13.907836    -24.040924    45.893917    0.000000    0.000000    0.000000    -29.707327    -26.873825    -3.799465    7.578067    18.232891    -12.194729    6.515531    12.741510    -15.473228    0.000000    0.000000    0.000000    
52.848289    154.483719    -107.430824    5.708803    5.203849    26.775211    11.366859    -1.352984    -4.976943    6.575097    0.197686    -1.715248    25.784498    -2.614848    3.719762    -4.120176    7.685774    -0.949810    18.217314    -4.320484    -17.881998    -20.693811    -24.632555    -33.057873    -17.953733    -56.067368    -95.014969    -61.627441    -43.206985    -58.696190    -4.245077    -0.211099    -8.155062    13.751964    17.855680    9.428687    16.326441    13.596559    -1.437284    20.697012    16.918434    17.585886    -9.872689    -0.502505    3.115145    -11.371477    29.157003    -15.853757    13.808221    -24.065928    45.926361    0.000000    0.000000    0.000000    -29.439884    -26.892288    -3.859246    7.573168    18.173471    -12.156467    6.455823    12.881433    -15.355034    0.000000    0.000000    0.000000    
52.615875    154.566498    -107.331207    5.555604    5.125303    26.686888    11.272411    -1.325410    -4.950070    6.485814    0.212007    -1.705648    25.712688    -2.531150    3.739190    -4.172630    7.535834    -0.906644    18.153872    -4.326952    -17.838108    -20.736135    -24.628929    -33.028999    -17.945850    -56.086899    -94.928558    -61.571224    -43.265057    -58.654987    -4.303102    -0.141391    -8.143623    13.825749    17.949657    9.451576    16.263350    13.567396    -1.373473    20.807728    16.902636    17.616171    -9.637604    -0.527083    3.109189    -11.340099    29.165148    -15.820500    13.718566    -24.101517    45.958160    0.000000    0.000000    0.000000    -29.143930    -26.919050    -3.862630    7.575301    18.095669    -12.188539    6.414208    13.030961    -15.215933    0.000000    0.000000    0.000000    
52.375378    154.655731    -107.214035    5.406157    5.014565    26.601236    11.171959    -1.276394    -4.925072    6.398499    0.226749    -1.695969    25.604349    -2.472891    3.754342    -4.151359    7.425428    -0.860455    18.070236    -4.300257    -17.818399    -20.730173    -24.662014    -32.994278    -17.942772    -56.098873    -94.790833    -61.536800    -43.254776    -58.669064    -4.346387    -0.122778    -8.143059    13.871391    18.146669    9.460459    16.197519    13.508297    -1.306806    20.930227    16.861197    17.659142    -9.389933    -0.507653    3.051521    -11.336045    29.135431    -15.753162    13.624234    -24.137794    46.047203    0.000000    0.000000    0.000000    -28.817066    -26.916992    -3.906175    7.551591    18.033428    -12.174255    6.349444    13.180920    -15.049836    0.000000    0.000000    0.000000    
52.129704    154.742096    -107.107948    5.251554    4.906013    26.513247    11.050558    -1.222279    -4.913287    6.368919    0.243744    -1.690774    25.562162    -2.456120    3.807761    -4.326579    7.386728    -0.808719    17.935804    -4.271057    -17.767996    -20.712372    -24.660168    -32.936935    -17.877810    -56.163376    -94.666443    -61.497913    -43.314480    -58.610573    -4.454722    -0.092988    -8.106703    13.944769    18.240181    9.447487    16.145414    13.466535    -1.239669    20.974985    16.804441    17.588511    -9.144346    -0.507677    3.007521    -11.310012    29.139490    -15.695786    13.529772    -24.181999    46.115627    0.000000    0.000000    0.000000    -28.491076    -26.928450    -3.994309    7.523441    17.987001    -12.105292    6.304590    13.332411    -14.927361    0.000000    0.000000    0.000000    
